<svg width="141" height="112" viewBox="0 0 141 112" fill="none" xmlns="http://www.w3.org/2000/svg">
<path d="M1.48289 43.3703C-0.615729 41.1538 -0.284371 37.9399 2.25607 36.1667L52.4021 1.14606C54.9426 -0.627138 58.8085 -0.294664 61.0176 1.81101L81.7829 21.2053C83.992 23.311 85.5383 27.4115 85.207 30.5146L84.1024 39.8239C83.7711 42.8162 85.8697 45.6976 88.9624 46.2517L112.158 50.0198C115.14 50.4631 117.901 48.4682 118.343 45.3651L119.448 37.3858C119.889 34.3935 122.54 32.2878 125.302 32.7311C128.063 33.1744 131.819 35.6126 133.365 38.2724L139.55 48.2466C141.097 50.7956 140.544 54.4528 138.114 56.3368L128.063 64.2054C125.633 66.0894 121.767 69.1925 119.448 71.0765L71.4002 109.754C69.0807 111.638 65.4357 111.417 63.3371 109.2L1.48289 43.3703ZM33.9564 35.7234C31.6368 37.7182 31.3055 41.1538 33.2936 43.4811L61.4594 76.9502C63.4475 79.2775 66.8716 79.61 69.1911 77.6151L84.6547 64.5378C86.9742 62.543 87.3056 59.1074 85.3174 56.7801L57.2621 23.311C55.2739 20.9837 51.8499 20.6512 49.5303 22.6461L33.9564 35.7234Z" fill="#84CB98"/>
</svg>
