<svg width="154" height="58" viewBox="0 0 154 58" fill="none" xmlns="http://www.w3.org/2000/svg">
<path d="M8.30117 57.7321C5.21349 57.7321 2.67718 55.306 2.56691 52.2182L0.912796 5.90147C0.802522 2.92396 3.22855 0.387573 6.20596 0.387573H97.9541C101.042 0.387573 105.673 1.49037 108.32 2.92398L151.106 25.2001C153.753 26.6337 154.194 29.501 152.099 31.5962L129.934 53.8723C127.838 55.9676 123.538 57.7321 120.56 57.7321H8.30117ZM32.0101 39.7568C32.0101 42.8446 34.5464 45.2707 37.5238 45.2707H77.2225C80.3102 45.2707 82.7362 42.7343 82.7362 39.7568V16.2676C82.7362 13.1798 80.1999 10.7537 77.2225 10.7537H37.5238C34.4361 10.7537 32.0101 13.2901 32.0101 16.2676V39.7568Z" fill="#84CB98"/>
</svg>
