<svg width="120" height="120" viewBox="0 0 120 120" fill="none" xmlns="http://www.w3.org/2000/svg">
<path d="M60 0C71.8508 1.4132e-07 83.4363 3.50943 93.295 10.0857C103.154 16.6619 110.844 26.0104 115.397 36.952C119.949 47.8936 121.159 59.9382 118.875 71.5667C116.59 83.1953 110.913 93.8868 102.559 102.293C94.206 110.699 83.5504 116.443 71.9364 118.801C60.3225 121.158 48.2704 120.024 37.3005 115.54C26.3305 111.057 16.9339 103.425 10.2958 93.608C3.65779 83.7907 0.0756399 72.2276 0.0011842 60.377L27.0007 60.2073C27.0416 66.7252 29.0118 73.0849 32.6627 78.4844C36.3136 83.8839 41.4818 88.0813 47.5152 90.5472C53.5487 93.0131 60.1774 93.6371 66.565 92.3404C72.9527 91.0437 78.8133 87.8845 83.4077 83.2611C88.0021 78.6378 91.1245 72.7574 92.381 66.3617C93.6375 59.966 92.9719 53.3415 90.4682 47.3236C87.9644 41.3057 83.7346 36.164 78.3123 32.5471C72.8899 28.9302 66.518 27 60 27V0Z" fill="#262E49"/>
</svg>
