<svg width="86" height="120" viewBox="0 0 86 120" fill="none" xmlns="http://www.w3.org/2000/svg">
<path d="M26 0C35.0118 1.07465e-07 43.9078 2.02999 52.0276 5.93924C60.1473 9.84849 67.2822 15.5366 72.9023 22.5811C78.5225 29.6257 82.4837 37.8458 84.4916 46.631C86.4996 55.4163 86.5028 64.541 84.5011 73.3276C82.4993 82.1143 78.544 90.3372 72.9288 97.3857C67.3136 104.434 60.1827 110.127 52.0658 114.042C43.9488 117.957 35.0542 119.994 26.0424 120C17.0306 120.006 8.13312 117.983 0.0106239 114.079L11.7058 89.7435C16.1732 91.8905 21.0668 93.0035 26.0233 93C30.9798 92.9965 35.8718 91.8765 40.3362 89.7233C44.8005 87.5701 48.7225 84.4388 51.8108 80.5621C54.8992 76.6854 57.0746 72.1629 58.1756 67.3302C59.2766 62.4975 59.2748 57.479 58.1704 52.6471C57.066 47.8152 54.8874 43.2941 51.7963 39.4196C48.7052 35.5451 44.781 32.4167 40.3152 30.2666C35.8493 28.1165 30.9565 27 26 27V0Z" fill="#84CB98"/>
</svg>
