<svg width="29" height="31" viewBox="0 0 29 31" fill="none" xmlns="http://www.w3.org/2000/svg">
<path d="M6.33452 23.6772C5.79368 22.9818 5.11762 21.5717 3.93935 19.814C3.26329 18.8482 1.60212 17.0132 1.0999 16.0667C0.737869 15.4915 0.632817 14.7912 0.810166 14.1351C1.11335 12.8877 2.29664 12.0602 3.57234 12.2035C4.559 12.4017 5.46574 12.8853 6.17999 13.5943C6.67869 14.064 7.13742 14.5744 7.55143 15.1202C7.86048 15.5065 7.93774 15.6611 8.28543 16.1053C8.63312 16.5496 8.86491 16.9939 8.69107 16.3371C8.55585 15.3713 8.32406 13.7488 7.99569 12.3001C7.74458 11.1991 7.68664 11.0253 7.45485 10.1947C7.22305 9.36408 7.08784 8.66871 6.83674 7.72223C6.6072 6.7923 6.42667 5.85096 6.29589 4.9021C6.05242 3.68849 6.22955 2.42814 6.7981 1.32865C7.47299 0.693873 8.463 0.526332 9.30917 0.903703C10.1602 1.53212 10.7948 2.40967 11.1249 3.41477C11.6311 4.65174 11.9689 5.95108 12.1293 7.27796C12.4384 9.20955 13.0371 12.0297 13.0565 12.6092C13.0565 11.8945 12.9213 10.3878 13.0565 9.71177C13.1904 9.00698 13.6803 8.42206 14.3506 8.16649C14.9259 7.98999 15.5344 7.95031 16.1277 8.0506C16.7266 8.1758 17.257 8.52025 17.615 9.01639C18.0625 10.1433 18.3109 11.3393 18.349 12.5512C18.4008 11.49 18.5824 10.4391 18.8899 9.42203C19.2127 8.96723 19.684 8.63933 20.2227 8.49486C20.8612 8.37811 21.5157 8.37811 22.1543 8.49486C22.6779 8.66993 23.136 9 23.4678 9.44134C23.8768 10.4658 24.1244 11.5474 24.2018 12.6478C24.2018 12.9182 24.337 11.8945 24.7619 11.2184C24.9827 10.5628 25.5366 10.0748 26.2147 9.9383C26.8929 9.80175 27.5924 10.0374 28.0497 10.5564C28.5071 11.0754 28.6528 11.799 28.4319 12.4546C28.4319 13.7102 28.4319 13.6522 28.4319 14.5021C28.4319 15.352 28.4319 16.1053 28.4319 16.82C28.3616 17.9504 28.2066 19.0738 27.9684 20.181C27.6322 21.1605 27.1643 22.0898 26.5776 22.9432C25.6397 23.9862 24.8648 25.1649 24.279 26.4394C24.1337 27.0725 24.0688 27.7215 24.0859 28.371C24.0839 28.971 24.1619 29.5686 24.3177 30.148C23.5279 30.2315 22.7315 30.2315 21.9418 30.148C21.1885 30.0321 20.2613 28.5255 20.0102 28.0619C19.886 27.813 19.6317 27.6557 19.3535 27.6557C19.0753 27.6557 18.821 27.813 18.6967 28.0619C18.2718 28.7959 17.3253 30.1287 16.6685 30.206C15.3744 30.3605 12.7088 30.206 10.6033 30.206C10.6033 30.206 10.951 28.2744 10.1591 27.579C9.36712 26.8836 8.55585 26.0724 7.95706 25.5315L6.33452 23.6772Z" fill="white"/>
</svg>
