<svg width="30" height="31" viewBox="0 0 30 31" fill="none" xmlns="http://www.w3.org/2000/svg">
<path fill-rule="evenodd" clip-rule="evenodd" d="M29.1549 16.865C29.1563 15.7287 29.1563 15.7287 29.1563 14.5021V12.5638C29.4029 11.6961 29.1934 10.7586 28.5932 10.0775C27.9648 9.36433 27.0036 9.04056 26.0717 9.22819C25.4368 9.35603 24.8813 9.70802 24.4957 10.2043C24.3939 9.85441 24.2754 9.51065 24.1404 9.17272C23.6267 8.44737 23.0468 8.0295 22.3839 7.80788C21.5598 7.64982 20.8171 7.64982 20.0924 7.78232C19.3672 7.97446 18.7744 8.37296 18.3563 8.92484C18.3341 8.86607 18.3114 8.80747 18.2882 8.74904C17.7387 7.94991 17.0516 7.50374 16.2759 7.34157C15.5439 7.21728 14.8213 7.26441 14.1381 7.474C13.6992 7.64055 13.322 7.89853 13.0251 8.22167C12.9537 7.82223 12.8946 7.47657 12.8445 7.16351C12.6802 5.79977 12.326 4.4374 11.7952 3.14043C11.436 2.04087 10.7114 1.03867 9.73943 0.32099C8.49137 -0.254134 7.18938 -0.0337973 6.30182 0.801019L6.15468 0.995932C5.51052 2.24163 5.30983 3.66957 5.58568 5.04457C5.71255 5.97498 5.89787 6.94125 6.13348 7.8958C6.24266 8.30776 6.24315 8.30977 6.47409 9.27768C6.48893 9.33974 6.49636 9.37082 6.50383 9.40189C6.51132 9.43305 6.51885 9.4642 6.53395 9.52661C6.61257 9.85035 6.68129 10.1175 6.75714 10.3894C6.8869 10.8514 6.93702 11.0303 6.98035 11.1908L7.00604 11.2868C7.08561 11.587 7.16388 11.9105 7.28947 12.4612C7.40461 12.9691 7.50607 13.4796 7.60346 14.0339C7.3133 13.6984 7.00305 13.3744 6.67662 13.067C5.87531 12.2713 4.84075 11.7195 3.71499 11.4934C2.01507 11.2997 0.495611 12.3623 0.106297 13.964C-0.119228 14.7974 0.0170892 15.7062 0.486874 16.4526C0.709736 16.8768 1.14167 17.4596 1.90924 18.4109L2.02868 18.5587C2.91968 19.6587 3.08 19.8564 3.22834 20.0626C3.26472 20.1132 3.30038 20.1643 3.34593 20.2294C3.62549 20.6466 4.1157 21.4551 4.5884 22.2347C5.11688 23.1063 5.62348 23.9419 5.78938 24.1542L7.41192 26.0085C7.62408 26.2046 8.18721 26.7376 8.57366 27.1033C8.76428 27.2837 8.91191 27.4234 8.95324 27.462C9.14042 27.6366 9.31224 27.7942 9.47707 27.9421C9.52812 27.9878 9.5536 28.0105 9.57916 28.0332C9.60462 28.0558 9.63016 28.0784 9.68114 28.1233C9.79651 28.2246 9.89335 28.4781 9.93391 28.8485C9.96832 29.1627 9.95888 29.5133 9.92143 29.8496C9.90909 29.9605 9.8972 30.0401 9.89044 30.0776C9.81047 30.5219 10.1519 30.9303 10.6033 30.9303C11.1232 30.9303 11.6599 30.9388 12.5131 30.9578L12.8075 30.9645C15.1188 31.017 15.9852 31.017 16.7544 30.9252C17.6335 30.8218 18.5687 29.7288 19.3621 28.3854C20.0368 29.6319 20.9035 30.7212 21.8316 30.8639C22.706 30.9572 23.5534 30.9572 24.3938 30.8683C24.8366 30.8215 25.1328 30.39 25.0171 29.96C24.8781 29.4426 24.8085 28.909 24.8102 28.3733C24.7945 27.7634 24.8533 27.1752 24.985 26.6014C25.4925 25.5336 26.2271 24.4162 27.1162 23.4275C27.7984 22.446 28.296 21.4578 28.6535 20.4161C28.9223 19.1908 29.0822 18.0315 29.1549 16.865ZM9.67961 26.1553C9.3027 25.7988 8.64418 25.176 8.44266 24.994L6.89666 23.2196C6.78352 23.0662 6.41573 22.4573 5.98854 21.7501C5.48065 20.9092 4.88878 19.9294 4.5411 19.4107C4.3799 19.1801 4.18102 18.9202 3.90966 18.5802C3.8042 18.4481 3.72885 18.3547 3.5398 18.1215L3.15451 17.6469L3.0368 17.5013C2.33244 16.6283 1.92938 16.0844 1.73983 15.7272C1.45871 15.2769 1.38493 14.785 1.50949 14.3241C1.73115 13.4132 2.57828 12.8208 3.49157 12.9233C4.27733 13.0839 5.05623 13.4994 5.66979 14.1084C6.15287 14.5637 6.58467 15.0442 6.97438 15.558C7.09531 15.7095 7.17131 15.8113 7.29086 15.9788C7.49655 16.2673 7.55523 16.3475 7.71508 16.5518C7.72645 16.5663 7.75722 16.608 7.79782 16.6629C7.90947 16.8141 8.09546 17.0659 8.15687 17.131C8.23243 17.2271 8.23242 17.2271 8.61765 17.385C9.44426 17.0804 9.44885 17.0736 9.47295 16.6853C9.48242 16.5327 9.45606 16.3962 9.39137 16.1518C9.17065 14.5378 8.97499 13.3435 8.7022 12.14C8.57296 11.5733 8.49098 11.2345 8.40646 10.9157L8.37906 10.8132C8.33364 10.645 8.28129 10.4582 8.15261 9.99997C8.08168 9.7458 8.01686 9.49378 7.94181 9.18475C7.92724 9.1245 7.91992 9.09424 7.91265 9.06397C7.9053 9.03343 7.898 9.00287 7.88332 8.94147C7.64861 7.95777 7.64757 7.95349 7.53694 7.53648C7.31659 6.64335 7.14084 5.72694 7.01353 4.80321C6.80402 3.75229 6.93669 2.70419 7.38272 1.77922C7.84025 1.40876 8.47058 1.3228 9.01422 1.56525C9.60915 2.02557 10.1536 2.77847 10.4368 3.6408C10.9362 4.86608 11.2576 6.10239 11.4103 7.36489C11.494 7.89181 11.5953 8.46615 11.7305 9.19829L11.7907 9.52257C12.3207 12.366 12.3244 12.3863 12.3326 12.6333C12.3642 13.5826 13.7809 13.559 13.7809 12.6092C13.7809 12.3999 13.7768 12.2877 13.7502 11.6599C13.7398 11.4122 13.7357 11.3067 13.731 11.1621C13.7105 10.5207 13.7207 10.0845 13.7668 9.85383C13.8552 9.38925 14.1733 9.00933 14.6088 8.84332C15.0306 8.71558 15.525 8.68333 16.007 8.76482C16.4016 8.84785 16.7754 9.0906 17.0277 9.44024C17.3584 10.3327 17.5896 11.446 17.6251 12.574C17.6543 13.5014 19.0274 13.5132 19.0726 12.5865C19.1194 11.6269 19.2786 10.6762 19.547 9.75397C19.7682 9.48203 20.07 9.28577 20.4104 9.19449C20.9055 9.1064 21.4716 9.1064 22.0241 9.20741C22.3091 9.31035 22.6453 9.55264 22.8888 9.8766C23.1764 10.6648 23.4072 11.673 23.4793 12.6986C23.4745 12.6972 23.4706 12.696 23.4684 12.6975C23.4577 12.7046 23.4883 12.7734 23.667 13.1756C24.403 13.3034 24.6265 13.3421 24.7338 13.2482C24.7806 13.2073 24.8054 13.1411 24.8409 13.0461L24.841 13.046C24.891 12.9442 24.891 12.9441 24.9052 12.9009C24.923 12.8481 24.9417 12.7776 24.9747 12.6499C25.0468 12.3767 25.1131 12.164 25.1992 11.9553C25.2554 11.8188 25.3146 11.7003 25.3753 11.6039C25.5867 11.0393 25.9333 10.7339 26.3578 10.6484C26.7823 10.5629 27.2201 10.7104 27.5063 11.0353C27.7926 11.3602 27.8838 11.8131 27.7456 12.2234L27.7077 12.4546V16.82C27.6409 17.8692 27.4909 18.9568 27.2603 20.0286C26.9685 20.8633 26.5303 21.7336 25.9808 22.5328C25.0524 23.5561 24.2372 24.7961 23.6209 26.1369C23.4141 26.9699 23.3432 27.6797 23.3618 28.39C23.3605 28.7503 23.387 29.1165 23.4409 29.4817C22.9663 29.4957 22.4909 29.4777 22.018 29.4277C21.783 29.3907 21.0651 28.4885 20.6472 27.7169C20.4115 27.2439 19.9063 26.9314 19.3535 26.9314C18.8008 26.9314 18.2955 27.2439 18.0487 27.7384C17.5693 28.5637 16.8016 29.461 16.584 29.4866C15.9139 29.5666 15.0577 29.5666 12.8405 29.5162L12.5455 29.5095C12.0903 29.4993 11.7235 29.4921 11.4002 29.4876C11.4098 29.2211 11.4028 28.953 11.3741 28.6908C11.2979 27.9948 11.0795 27.4232 10.6371 27.0347C10.5894 26.9927 10.5654 26.9715 10.5415 26.9503C10.5173 26.9288 10.4932 26.9072 10.4446 26.8638C10.2874 26.7227 10.1223 26.5713 9.94154 26.4027C9.9118 26.3749 9.81347 26.2819 9.67961 26.1553Z" fill="black"/>
</svg>
